<svg xmlns="http://www.w3.org/2000/svg" xmlns:v="https://vecta.io/nano">
  <defs>
    <g id="logotype">
      <path d="M232.283 0a7.93 7.93 0 0 1 7.93 7.93v128.461a7.93 7.93 0 0 1-15.86 0V7.93a7.93 7.93 0 0 1 7.93-7.93zm0 318.773a7.93 7.93 0 0 1 7.93 7.93v128.461a7.93 7.93 0 0 1-15.86 0V326.703c0-4.379 3.551-7.93 7.93-7.93zm231.547-87.226a7.93 7.93 0 0 1-7.93 7.93H327.439a7.93 7.93 0 1 1 0-15.86H455.9a7.93 7.93 0 0 1 7.93 7.93zm-318.773 0c0 4.379-3.551 7.93-7.93 7.93H8.666a7.93 7.93 0 1 1 0-15.86h128.461a7.93 7.93 0 0 1 7.93 7.93zM396.012 67.819c3.096 3.097 3.096 8.118 0 11.214l-90.836 90.835a7.93 7.93 0 0 1-11.214-11.214l90.835-90.835a7.93 7.93 0 0 1 11.215 0zM170.605 293.225c3.096 3.097 3.096 8.118 0 11.215l-90.836 90.835a7.93 7.93 0 0 1-11.214-11.214l90.835-90.836c3.097-3.096 8.118-3.096 11.215 0zm225.406 102.05a7.93 7.93 0 0 1-11.214 0l-90.835-90.835a7.93 7.93 0 0 1 0-11.215c3.096-3.096 8.117-3.096 11.214 0l90.835 90.836a7.93 7.93 0 0 1 0 11.214z M170.605 169.868a7.93 7.93 0 0 1-11.215 0L68.555 79.033a7.93 7.93 0 0 1 11.214-11.214l90.836 90.836c3.096 3.097 3.096 8.118 0 11.214zM292.212 7.89a7.93 7.93 0 0 1 5.607 9.712l-33.248 124.083a7.93 7.93 0 1 1-15.319-4.104L282.5 13.497a7.93 7.93 0 0 1 9.712-5.607zm-82.505 307.911a7.93 7.93 0 0 1 5.607 9.712l-33.248 124.084a7.93 7.93 0 1 1-15.319-4.105l33.248-124.084c1.134-4.23 5.482-6.74 9.712-5.607zm246.233-24.325a7.93 7.93 0 0 1-9.712 5.607l-124.083-33.248a7.93 7.93 0 1 1 4.104-15.319l124.084 33.248a7.93 7.93 0 0 1 5.607 9.712zm-307.911-82.505a7.93 7.93 0 0 1-9.712 5.607L14.233 181.33a7.93 7.93 0 1 1 4.105-15.319l124.084 33.248c4.23 1.134 6.74 5.482 5.607 9.712zm284.78-93.198c2.189 3.793.89 8.643-2.903 10.833l-111.25 64.23a7.93 7.93 0 0 1-7.93-13.735l111.251-64.23a7.93 7.93 0 0 1 10.832 2.902zM156.743 275.16a7.93 7.93 0 0 1-2.903 10.832L42.59 350.223a7.93 7.93 0 1 1-7.93-13.735l111.251-64.23a7.93 7.93 0 0 1 10.832 2.902zm191.314 156.912a7.93 7.93 0 0 1-10.833-2.902l-64.23-111.25c-2.19-3.793-.89-8.643 2.902-10.833s8.643-.89 10.833 2.903l64.23 111.25a7.93 7.93 0 0 1-2.902 10.832zM188.67 156.006a7.93 7.93 0 0 1-10.832-2.902l-64.231-111.25a7.93 7.93 0 1 1 13.735-7.93l64.23 111.25a7.93 7.93 0 0 1-2.902 10.832zM348.057 31.021a7.93 7.93 0 0 1 2.902 10.832l-64.23 111.251a7.93 7.93 0 1 1-13.735-7.93l64.23-111.25c2.19-3.793 7.04-5.092 10.833-2.903zM188.67 307.087a7.93 7.93 0 0 1 2.902 10.832l-64.23 111.251a7.93 7.93 0 1 1-13.735-7.93l64.231-111.25a7.93 7.93 0 0 1 10.832-2.903zm244.139 40.233a7.93 7.93 0 0 1-10.832 2.903l-111.251-64.231a7.93 7.93 0 0 1 7.93-13.734l111.25 64.23a7.93 7.93 0 0 1 2.903 10.832z M156.743 187.934a7.93 7.93 0 0 1-10.832 2.902L34.66 126.606a7.93 7.93 0 0 1 7.93-13.735l111.25 64.23c3.793 2.19 5.092 7.04 2.903 10.833zm299.197-16.316a7.93 7.93 0 0 1-5.607 9.712l-124.084 33.248a7.93 7.93 0 1 1-4.104-15.319l124.083-33.248a7.93 7.93 0 0 1 9.712 5.607zm-307.911 82.505c1.133 4.23-1.377 8.578-5.607 9.712L18.338 297.083a7.93 7.93 0 1 1-4.105-15.319l124.084-33.248a7.93 7.93 0 0 1 9.712 5.607zm144.183 201.081a7.93 7.93 0 0 1-9.712-5.607l-33.248-124.084a7.93 7.93 0 0 1 5.607-9.712c4.23-1.133 8.578 1.377 9.712 5.607l33.248 124.084a7.93 7.93 0 0 1-5.607 9.712zm-82.505-307.912a7.93 7.93 0 0 1-9.712-5.607L166.747 17.602a7.93 7.93 0 1 1 15.319-4.105l33.248 124.084a7.93 7.93 0 0 1-5.607 9.711z"/>
    </g>
    <g id="logotype-text">
      <path d="M37.91 282.182H.493V5.837H37.91v118.87h136.687V5.837h37.417v276.345h-37.417V159.489H37.91v122.693zm301.124 4.587c-18.073 0-34.109-4.077-48.108-12.231-14-8.409-24.945-19.876-32.835-34.4-7.891-14.779-11.836-31.852-11.836-51.218 0-19.62 3.818-36.82 11.454-51.599 7.89-14.78 18.581-26.374 32.071-34.783 13.746-8.408 29.654-12.613 47.726-12.613 17.818 0 33.218 3.822 46.199 11.467 13.236 7.644 23.418 18.346 30.545 32.106 7.381 13.76 11.072 29.941 11.072 48.542v13.378H280.87s-.37-4.918-.207-11.918.917-11.78.917-11.78h107.852c0-15.543-4.709-28.029-14.127-37.457s-22.017-14.142-37.799-14.142c-11.963 0-22.272 2.675-30.926 8.026-8.4 5.096-14.89 12.741-19.472 22.933-4.327 9.938-6.491 21.914-6.491 35.929 0 22.424 5.091 39.751 15.272 51.982 10.182 11.976 24.818 17.964 43.908 17.964 14 0 25.454-2.803 34.363-8.408s14.89-13.76 17.945-24.462h33.599c-4.582 19.875-14.382 35.291-29.399 46.248s-34.108 16.436-57.271 16.436zm151.574-4.587h-35.89V.868h35.89v281.314zm41.378 0V95.276h35.89v186.906h-35.89zm17.563-231.243c-6.363 0-11.963-2.293-16.799-6.88-4.582-4.841-6.872-10.447-6.872-16.818 0-6.625 2.29-12.231 6.872-16.818 4.836-4.587 10.436-6.88 16.799-6.88 6.618 0 12.218 2.293 16.8 6.88s6.873 10.192 6.873 16.818c0 6.37-2.291 11.976-6.873 16.818-4.582 4.587-10.182 6.88-16.8 6.88zm46.76 137.599c0-19.111 4.2-36.056 12.6-50.835s19.854-26.373 34.362-34.782c14.763-8.409 31.563-12.614 50.399-12.614s35.508 4.204 50.016 12.614 25.963 20.003 34.363 34.782 12.6 31.724 12.6 50.835-4.2 36.056-12.6 50.835-19.854 26.373-34.363 34.782-31.181 12.614-50.016 12.614-35.636-4.205-50.399-12.614c-14.508-8.409-25.963-20.003-34.362-34.782s-12.6-31.724-12.6-50.835zm36.272 0c0 12.996 2.545 24.462 7.636 34.4 5.345 9.938 12.599 17.709 21.763 23.315s19.726 8.409 31.69 8.409 22.526-2.803 31.69-8.409 16.29-13.377 21.381-23.315c5.345-9.938 8.018-21.404 8.018-34.4 0-13.25-2.673-24.717-8.018-34.4-5.091-9.938-12.218-17.709-21.381-23.315s-19.727-8.409-31.69-8.409-22.527 2.803-31.69 8.409-16.418 13.377-21.763 23.315c-5.091 9.683-7.636 21.15-7.636 34.4zm171.07 39.369h34.363c0 9.428 3.436 16.945 10.309 22.551 6.872 5.351 16.163 8.026 27.871 8.026 12.727 0 22.527-2.42 29.4-7.262 6.872-5.096 10.308-11.849 10.308-20.258 0-6.115-1.909-11.211-5.727-15.288-3.563-4.077-10.181-7.39-19.854-9.938l-32.835-7.644c-16.545-4.078-28.89-10.32-37.035-18.729-7.891-8.409-11.836-19.494-11.836-33.253 0-11.467 2.927-21.405 8.781-29.814 6.109-8.408 14.382-14.906 24.818-19.493 10.69-4.587 22.908-6.88 36.653-6.88s25.581 2.421 35.508 7.262c10.182 4.842 18.072 11.594 23.672 20.258 5.855 8.664 8.909 18.984 9.164 30.96h-34.363c-.255-9.683-3.436-17.2-9.545-22.551s-14.636-8.027-25.581-8.027c-11.2 0-19.854 2.421-25.963 7.262s-9.164 11.467-9.164 19.876c0 12.486 9.164 21.022 27.491 25.609l32.835 8.026c15.781 3.568 27.617 9.428 35.508 17.582 7.891 7.9 11.836 18.729 11.836 32.489 0 11.722-3.182 22.042-9.545 30.96-6.364 8.664-15.145 15.416-26.345 20.258-10.945 4.586-23.926 6.88-38.944 6.88-21.89 0-39.326-5.351-52.308-16.054s-19.472-24.971-19.472-42.808z"/>
    </g>
    <g id="logotype-alt">
      <path d="M688.824 85.363c1.896 0 3.433 1.537 3.433 3.433v55.623c0 1.897-1.537 3.434-3.433 3.434s-3.434-1.537-3.434-3.434V88.797c0-1.896 1.538-3.433 3.434-3.433zm0 138.027c1.896 0 3.433 1.537 3.433 3.434v55.622c0 1.897-1.537 3.434-3.433 3.434s-3.434-1.537-3.434-3.434v-55.622c0-1.897 1.538-3.434 3.434-3.434zm100.258-37.769c0 1.897-1.537 3.434-3.433 3.434h-55.623c-1.896 0-3.433-1.537-3.433-3.434s1.537-3.433 3.433-3.433h55.623c1.896 0 3.433 1.537 3.433 3.433zm-138.027 0c0 1.897-1.537 3.434-3.433 3.434h-55.623c-1.896 0-3.434-1.537-3.434-3.434s1.538-3.433 3.434-3.433h55.623c1.896 0 3.433 1.537 3.433 3.433z"/>
      <use href="#B"/>
      <use href="#B" x="-97.6" y="97.6"/>
      <path d="M759.717 256.515c-1.34 1.341-3.514 1.341-4.855 0l-39.332-39.331c-1.341-1.341-1.341-3.515 0-4.856s3.515-1.341 4.856 0l39.331 39.331c1.341 1.341 1.341 3.515 0 4.856zm-97.6-97.6c-1.34 1.341-3.514 1.341-4.855 0l-39.332-39.331c-1.34-1.341-1.34-3.515 0-4.856s3.515-1.341 4.856 0l39.331 39.331c1.341 1.341 1.341 3.515 0 4.856zm52.656-70.136c1.831.491 2.918 2.373 2.428 4.205l-14.397 53.728c-.49 1.832-2.373 2.919-4.205 2.428s-2.918-2.374-2.428-4.205l14.397-53.728c.49-1.832 2.373-2.919 4.205-2.428zm-35.724 133.324c1.831.491 2.918 2.374 2.428 4.205l-14.397 53.728c-.49 1.832-2.373 2.919-4.205 2.428s-2.919-2.374-2.428-4.205l14.397-53.728c.49-1.832 2.373-2.919 4.205-2.428z"/>
      <use href="#C"/>
      <use href="#C" x="-133.324" y="-35.724"/>
      <path d="M775.65 135.492c.949 1.642.386 3.742-1.256 4.69l-48.171 27.812c-1.642.948-3.742.385-4.69-1.257s-.386-3.742 1.256-4.69l48.171-27.812c1.642-.948 3.742-.385 4.69 1.257zm-119.535 69.014c.949 1.642.386 3.742-1.256 4.69l-48.171 27.811c-1.642.949-3.742.386-4.69-1.256s-.386-3.742 1.256-4.691l48.171-27.811c1.642-.948 3.742-.385 4.69 1.257zm82.838 67.942c-1.642.948-3.742.385-4.69-1.257l-27.812-48.171c-.948-1.642-.385-3.742 1.257-4.69s3.742-.385 4.69 1.257l27.812 48.171c.948 1.642.385 3.742-1.257 4.69zM669.94 152.913c-1.643.948-3.743.385-4.691-1.257l-27.811-48.171c-.948-1.642-.386-3.742 1.257-4.69s3.742-.386 4.69 1.257l27.811 48.171c.949 1.642.386 3.742-1.256 4.69z"/>
      <path d="M738.953 98.795c1.642.948 2.205 3.048 1.257 4.69l-27.811 48.171c-.949 1.642-3.049 2.205-4.691 1.257s-2.205-3.048-1.257-4.69l27.812-48.171c.948-1.642 3.048-2.205 4.69-1.257zM669.94 218.33c1.642.948 2.205 3.048 1.256 4.69l-27.811 48.171c-.948 1.642-3.048 2.205-4.69 1.257s-2.205-3.048-1.257-4.69l27.811-48.171c.949-1.642 3.048-2.205 4.691-1.257zm105.71 17.421c-.948 1.642-3.048 2.205-4.69 1.257l-48.171-27.812c-1.642-.948-2.205-3.048-1.256-4.69s3.048-2.205 4.69-1.257l48.171 27.812c1.642.948 2.205 3.048 1.256 4.69zm-119.535-69.014c-.948 1.642-3.048 2.205-4.69 1.257l-48.171-27.812c-1.642-.948-2.205-3.048-1.256-4.69s3.048-2.205 4.69-1.257l48.171 27.812c1.642.948 2.204 3.048 1.256 4.69zm129.551-7.064c.491 1.831-.596 3.714-2.428 4.205l-53.727 14.396c-1.832.491-3.715-.596-4.205-2.428s.596-3.714 2.427-4.205l53.728-14.396c1.832-.491 3.714.596 4.205 2.428zm-133.324 35.724c.491 1.831-.596 3.714-2.428 4.205l-53.727 14.396c-1.832.491-3.715-.596-4.205-2.428s.596-3.714 2.428-4.205l53.727-14.396c1.832-.491 3.714.596 4.205 2.428zm62.431 87.067c-1.832.491-3.715-.596-4.205-2.428l-14.397-53.728c-.49-1.831.597-3.714 2.428-4.205s3.715.596 4.205 2.428l14.397 53.728c.49 1.831-.597 3.714-2.428 4.205zM679.049 149.14c-1.832.491-3.715-.596-4.205-2.428l-14.397-53.728c-.491-1.832.596-3.714 2.428-4.205s3.715.596 4.205 2.428l14.397 53.728c.49 1.831-.597 3.714-2.428 4.205z"/>
      <path d="M37.43 281.106H0V4.965h37.43v118.783h136.733V4.965h37.43v276.141h-37.43V158.504H37.43v122.602zm301.226 4.583c-18.078 0-34.12-4.074-48.124-12.222-14.005-8.403-24.953-19.861-32.847-34.374-7.893-14.769-11.84-31.828-11.84-51.18 0-19.606 3.82-36.793 11.458-51.561 7.894-14.769 18.588-26.354 32.083-34.757 13.75-8.402 29.664-12.604 47.742-12.604 17.824 0 33.229 3.819 46.215 11.458 13.24 7.639 23.425 18.333 30.555 32.083 7.384 13.75 11.076 29.919 11.076 48.506v13.368l-160.032.382.764-24.062h123.366c0-15.532-4.711-28.009-14.132-37.43s-22.025-14.132-37.812-14.132c-11.967 0-22.279 2.674-30.937 8.021-8.402 5.093-14.895 12.731-19.479 22.916-4.328 9.931-6.492 21.898-6.492 35.902 0 22.407 5.092 39.722 15.277 51.944 10.185 11.967 24.826 17.951 43.923 17.951 14.004 0 25.462-2.801 34.374-8.403s14.896-13.749 17.951-24.444h33.611c-4.584 19.861-14.387 35.266-29.409 46.215s-34.12 16.423-57.291 16.423zm151.626-4.583H454.38V0h35.902v281.106zm41.392 0V94.339h35.903v186.767h-35.903zm17.57-231.072c-6.366 0-11.968-2.292-16.806-6.875-4.583-4.838-6.875-10.44-6.875-16.805 0-6.62 2.292-12.222 6.875-16.805 4.838-4.583 10.44-6.875 16.806-6.875 6.62 0 12.222 2.292 16.805 6.875s6.875 10.185 6.875 16.805c0 6.366-2.292 11.967-6.875 16.805-4.583 4.583-10.185 6.875-16.805 6.875zm254.188 176.837h34.374c0 9.421 3.438 16.932 10.312 22.534 6.875 5.347 16.169 8.021 27.882 8.021 12.731 0 22.534-2.419 29.409-7.257 6.875-5.093 10.312-11.84 10.312-20.243 0-6.111-1.909-11.203-5.729-15.277-3.565-4.074-10.185-7.384-19.861-9.931l-32.846-7.638c-16.551-4.074-28.9-10.313-37.048-18.715-7.893-8.403-11.84-19.479-11.84-33.229 0-11.458 2.928-21.388 8.784-29.791 6.111-8.403 14.387-14.896 24.826-19.479 10.695-4.583 22.917-6.875 36.666-6.875s25.59 2.419 35.521 7.257c10.184 4.838 18.078 11.586 23.68 20.243 5.856 8.657 8.911 18.969 9.166 30.937h-34.374c-.255-9.676-3.438-17.187-9.549-22.535s-14.641-8.02-25.589-8.02c-11.204 0-19.861 2.419-25.972 7.257s-9.167 11.458-9.167 19.86c0 12.477 9.167 21.007 27.5 25.59l32.846 8.021c15.787 3.565 27.627 9.421 35.521 17.569 7.893 7.893 11.84 18.715 11.84 32.465 0 11.712-3.183 22.025-9.549 30.936-6.365 8.658-15.15 15.405-26.353 20.243-10.949 4.583-23.935 6.875-38.958 6.875-21.898 0-39.34-5.347-52.325-16.041s-19.479-24.954-19.479-42.777z"/>
    </g>
    <g id="logotype-explorer">
      <g fill-rule="evenodd"><path d="M48.505 6.027c.133 0 .242.109.242.242v3.927c0 .134-.108.242-.242.242s-.242-.109-.242-.242V6.27c0-.134.108-.242.242-.242zm0 9.747c.133 0 .242.108.242.242v3.928c0 .134-.108.242-.242.242s-.242-.109-.242-.242v-3.928c0-.134.108-.242.242-.242zm7.059-2.667c0 .134-.108.242-.242.242h-3.917c-.133 0-.242-.109-.242-.242s.108-.242.242-.242h3.917c.134 0 .242.108.242.242zm-9.719 0c0 .134-.108.242-.242.242h-3.917c-.133 0-.242-.109-.242-.242s.108-.242.242-.242h3.917c.133 0 .242.108.242.242zm7.652-5.006c.095.095.095.248 0 .343l-2.77 2.777a.24.24 0 0 1-.342 0c-.095-.095-.094-.248 0-.343l2.77-2.777a.24.24 0 0 1 .342 0zm-6.873 6.892c.094.095.094.248 0 .343l-2.77 2.777a.24.24 0 0 1-.342 0c-.094-.095-.094-.248 0-.343l2.77-2.777a.24.24 0 0 1 .342 0zm6.873 3.12a.24.24 0 0 1-.342 0l-2.77-2.777c-.094-.095-.094-.248 0-.343a.24.24 0 0 1 .342 0l2.77 2.777c.095.095.095.248 0 .343zm-6.873-6.892a.24.24 0 0 1-.342 0l-2.77-2.777c-.094-.095-.094-.248 0-.343a.24.24 0 0 1 .342 0l2.77 2.777c.094.095.094.248 0 .343zm3.708-4.952c.129.035.206.168.171.297l-1.014 3.794c-.035.129-.167.206-.296.172s-.206-.168-.171-.297l1.014-3.794a.24.24 0 0 1 .296-.171zm-2.516 9.414c.129.035.206.168.171.297l-1.014 3.794c-.035.129-.167.206-.296.172s-.206-.168-.171-.297l1.014-3.794c.035-.129.167-.206.296-.171z"/><path d="M55.324 14.939c-.035.129-.167.206-.296.171l-3.783-1.017c-.129-.035-.206-.168-.171-.297s.167-.206.296-.171l3.783 1.016c.129.035.206.168.171.297zm-9.388-2.522c-.035.129-.167.206-.296.171l-3.783-1.016c-.129-.035-.206-.168-.171-.297s.167-.206.296-.171l3.783 1.017c.129.035.206.168.171.297zm8.683-2.85c.067.116.027.264-.088.331l-3.392 1.964a.24.24 0 0 1-.33-.089c-.066-.116-.027-.264.089-.331l3.392-1.964a.24.24 0 0 1 .33.089zm-8.418 4.873c.067.116.027.264-.089.331l-3.392 1.964a.24.24 0 0 1-.33-.089c-.066-.116-.027-.264.088-.331l3.392-1.964a.24.24 0 0 1 .33.089zm5.833 4.798a.24.24 0 0 1-.33-.089l-1.958-3.401c-.067-.116-.027-.264.089-.331a.24.24 0 0 1 .33.089l1.958 3.401c.067.116.027.264-.089.331zm-4.859-8.441a.24.24 0 0 1-.33-.089l-1.958-3.401c-.067-.116-.027-.264.089-.331a.24.24 0 0 1 .33.089l1.958 3.401c.067.116.027.264-.088.331z"/><path d="M52.034 6.976c.116.067.155.215.089.331l-1.958 3.401c-.067.116-.215.156-.33.089s-.155-.215-.089-.331l1.958-3.401c.067-.116.215-.156.33-.089zm-4.859 8.44c.116.067.155.215.088.331l-1.958 3.401c-.067.116-.215.156-.33.089s-.155-.215-.089-.331l1.958-3.401c.067-.116.215-.156.33-.089zm7.444 1.23c-.067.116-.215.156-.33.089l-3.392-1.964c-.116-.067-.155-.215-.089-.331a.24.24 0 0 1 .33-.089l3.392 1.964c.116.067.155.215.088.331zm-8.418-4.873c-.067.116-.215.156-.33.089l-3.392-1.964c-.116-.067-.155-.215-.088-.331s.215-.156.33-.089l3.392 1.964c.116.067.155.215.089.331zm9.123-.498c.035.129-.042.262-.171.297l-3.783 1.016a.24.24 0 0 1-.296-.171c-.034-.129.042-.262.171-.297l3.783-1.017a.24.24 0 0 1 .296.172zm-9.388 2.522c.035.129-.042.262-.171.297l-3.783 1.017c-.129.035-.261-.042-.296-.171s.042-.262.171-.297l3.783-1.016a.24.24 0 0 1 .296.172zm4.396 6.148a.24.24 0 0 1-.296-.172l-1.014-3.794c-.035-.129.042-.262.171-.297a.24.24 0 0 1 .296.171l1.014 3.794c.035.129-.042.262-.171.297zm-2.516-9.414c-.129.035-.261-.042-.296-.171l-1.014-3.794c-.035-.129.042-.262.171-.297s.261.042.296.171l1.014 3.794c.035.129-.042.262-.171.297zm81.18-3.752c.126 0 .228.102.228.229v3.702c0 .126-.102.229-.228.229s-.228-.102-.228-.229V7.007c0-.126.102-.229.228-.229zm0 9.186c.126 0 .228.102.228.229v3.702c0 .126-.102.229-.228.229s-.228-.102-.228-.229v-3.702c0-.126.102-.229.228-.229z"/><use href="#EB"/><use href="#EB" x="-9.161"/><path d="M133.702 8.733a.23.23 0 0 1 0 .323l-2.611 2.618c-.089.089-.233.089-.322 0a.23.23 0 0 1 0-.323l2.61-2.618c.089-.089.234-.089.323 0zm-6.478 6.496a.23.23 0 0 1 0 .323l-2.611 2.618c-.089.089-.233.089-.322 0a.23.23 0 0 1 0-.323l2.611-2.618c.089-.089.233-.089.322 0zm6.478 2.941c-.089.089-.234.089-.323 0l-2.61-2.618a.23.23 0 0 1 0-.323c.089-.089.233-.089.322 0l2.611 2.618a.23.23 0 0 1 0 .323zm-6.478-6.496c-.089.089-.233.089-.322 0l-2.611-2.618a.23.23 0 0 1 0-.323c.089-.089.233-.089.322 0l2.611 2.618a.23.23 0 0 1 0 .323zm3.495-4.668a.23.23 0 0 1 .161.28l-.956 3.576c-.032.122-.157.194-.279.162s-.194-.158-.161-.28l.956-3.576c.032-.122.157-.194.279-.162zm-2.371 8.873a.23.23 0 0 1 .161.28l-.956 3.576c-.032.122-.157.194-.279.162s-.194-.158-.161-.28l.955-3.576a.23.23 0 0 1 .28-.162z"/><use href="#EC"/><use href="#EC" x="-8.849" y="-2.377"/><path d="M134.759 10.115c.063.109.026.249-.083.312l-3.197 1.851c-.109.063-.249.026-.312-.084a.23.23 0 0 1 .084-.312l3.197-1.851c.109-.063.248-.026.311.084zm-7.934 4.593c.063.109.026.249-.083.312l-3.197 1.851c-.109.063-.249.026-.311-.084a.23.23 0 0 1 .083-.312l3.197-1.851c.109-.063.248-.026.311.084zm5.499 4.522c-.109.063-.249.026-.312-.084l-1.846-3.206a.23.23 0 0 1 .084-.312c.109-.063.248-.026.311.084l1.846 3.206c.063.109.026.249-.083.312zm-4.581-7.956c-.109.063-.248.026-.311-.084l-1.846-3.206c-.063-.109-.026-.249.083-.312s.249-.026.311.084l1.846 3.206c.063.109.026.249-.083.312z"/><path d="M132.324 7.673c.109.063.146.203.083.312l-1.846 3.206c-.063.109-.202.147-.311.084a.23.23 0 0 1-.084-.312l1.846-3.206a.23.23 0 0 1 .312-.084zm-4.581 7.955c.109.063.146.203.083.312l-1.846 3.206c-.062.109-.202.147-.311.084s-.146-.203-.083-.312l1.846-3.206c.063-.109.202-.147.311-.084zm7.016 1.16c-.063.109-.202.147-.311.084l-3.197-1.851a.23.23 0 0 1-.084-.312.23.23 0 0 1 .312-.084l3.197 1.851c.109.063.146.203.083.312zm-7.934-4.594c-.063.109-.202.147-.311.084l-3.197-1.851c-.109-.063-.146-.203-.083-.312s.202-.147.311-.084l3.197 1.851c.109.063.146.203.083.312z"/><use href="#ED"/><use href="#ED" x="-8.849" y="2.378"/><path d="M130.719 19.897c-.122.033-.247-.04-.279-.162l-.956-3.576c-.033-.122.04-.247.161-.28s.247.04.279.162l.956 3.576a.23.23 0 0 1-.161.28zm-2.371-8.874c-.122.033-.247-.04-.28-.162l-.955-3.576c-.033-.122.04-.247.161-.28s.247.04.279.162l.956 3.576a.23.23 0 0 1-.161.28z"/></g><path d="M2.636 19.849H0V.351h2.636v8.387h9.628V.351H14.9v19.498h-2.636v-8.657H2.636v8.657zm21.211.324c-1.273 0-2.403-.288-3.389-.863-.986-.593-1.757-1.402-2.313-2.427-.556-1.043-.834-2.247-.834-3.614 0-1.384.269-2.598.807-3.641.556-1.043 1.309-1.861 2.259-2.454.968-.593 2.089-.89 3.362-.89 1.255 0 2.34.27 3.254.809.932.539 1.649 1.295 2.152 2.265.52.971.78 2.113.78 3.425v.944l-11.269.027.054-1.699h8.687c0-1.097-.332-1.978-.995-2.643s-1.551-.998-2.663-.998c-.843 0-1.569.189-2.178.566-.592.36-1.049.899-1.372 1.618-.305.701-.457 1.546-.457 2.535 0 1.582.359 2.805 1.076 3.668.717.845 1.748 1.267 3.093 1.267.986 0 1.793-.198 2.421-.593s1.049-.971 1.264-1.726h2.367c-.323 1.402-1.013 2.49-2.071 3.263s-2.403 1.16-4.034 1.16zm10.677-.324h-2.528V0h2.528v19.849zm2.915 0V6.661h2.528v13.188h-2.528zm1.237-16.316c-.448 0-.843-.162-1.183-.485-.323-.342-.484-.737-.484-1.187 0-.467.161-.863.484-1.187.341-.324.735-.485 1.183-.485.466 0 .861.162 1.183.485s.484.719.484 1.187c0 .449-.161.845-.484 1.187-.323.324-.717.485-1.183.485zm17.899 12.486h2.421c0 .665.242 1.196.726 1.591.484.378 1.139.566 1.963.566.897 0 1.587-.171 2.071-.512.484-.36.726-.836.726-1.429a1.52 1.52 0 0 0-.404-1.079c-.251-.288-.717-.521-1.398-.701l-2.313-.539c-1.165-.288-2.035-.728-2.609-1.322-.556-.593-.834-1.375-.834-2.346 0-.809.206-1.51.619-2.104.43-.593 1.013-1.052 1.748-1.375.753-.324 1.614-.485 2.582-.485s1.802.171 2.501.512c.717.342 1.273.818 1.668 1.429.412.611.627 1.339.645 2.184h-2.421c-.018-.683-.242-1.214-.672-1.591s-1.031-.566-1.802-.566c-.789 0-1.398.171-1.829.512s-.646.809-.646 1.402c0 .881.646 1.483 1.936 1.807l2.313.566c1.112.252 1.945.665 2.501 1.241.556.557.834 1.321.834 2.292 0 .827-.224 1.555-.672 2.184-.448.611-1.067 1.088-1.856 1.429-.771.324-1.685.485-2.743.485-1.542 0-2.77-.378-3.684-1.133s-1.372-1.762-1.372-3.02zm33.27 4.105h-11.8V.724h11.8v2.415H79.463l1.204-1.046v7.11h8.268v2.334h-8.268v7.245l-1.204-1.1h10.382v2.442zm3.372 0h-2.89l4.576-6.493-4.549-6.627h2.917l3.318 4.883 3.238-4.883h2.863l-4.549 6.627 4.469 6.493h-2.917l-3.264-4.803-3.211 4.803zM103.45 26V7.003h2.274l.187 2.361c.428-.912 1.062-1.592 1.9-2.039.856-.465 1.802-.698 2.836-.698 1.249 0 2.328.295 3.238.885.91.572 1.606 1.377 2.087 2.415.5 1.02.75 2.2.75 3.542s-.241 2.54-.723 3.595c-.464 1.055-1.15 1.887-2.06 2.495-.892.608-1.989.912-3.292.912-1.052 0-1.989-.215-2.809-.644s-1.445-1.047-1.873-1.851V26h-2.515zm2.542-12.423c0 .877.16 1.672.481 2.388.339.698.812 1.243 1.418 1.637.625.393 1.365.59 2.221.59s1.588-.197 2.195-.59c.606-.412 1.07-.966 1.391-1.664.339-.698.508-1.485.508-2.361 0-.912-.169-1.717-.508-2.415a3.79 3.79 0 0 0-1.391-1.637c-.607-.394-1.338-.59-2.195-.59s-1.596.197-2.221.59c-.606.394-1.079.939-1.418 1.637-.321.698-.481 1.503-.481 2.415zm14.733 6.547h-2.515V.376h2.515v19.748zm1.508-6.574c0-1.342.295-2.531.883-3.569a6.45 6.45 0 0 1 2.409-2.442c1.034-.59 2.212-.885 3.532-.885s2.488.295 3.505.885a6.44 6.44 0 0 1 2.408 2.442c.588 1.038.883 2.227.883 3.569s-.294 2.531-.883 3.569-1.391 1.851-2.408 2.442-2.185.885-3.505.885-2.498-.295-3.532-.885a6.45 6.45 0 0 1-2.409-2.442c-.589-1.038-.883-2.227-.883-3.569zm2.542 0c0 .912.179 1.717.536 2.415a4.21 4.21 0 0 0 1.525 1.637c.642.393 1.382.59 2.221.59s1.578-.197 2.221-.59 1.141-.939 1.498-1.637c.375-.698.562-1.503.562-2.415 0-.93-.187-1.735-.562-2.415-.357-.698-.856-1.243-1.498-1.637s-1.383-.59-2.221-.59-1.579.197-2.221.59a4.21 4.21 0 0 0-1.525 1.637c-.357.68-.536 1.485-.536 2.415zm20.017-6.654v2.308h-1.124c-1.195 0-2.14.349-2.836 1.046-.678.68-1.017 1.655-1.017 2.925v6.949H137.3V7.03h2.354l.215 2.63h-.241a3.49 3.49 0 0 1 1.284-2.093c.678-.555 1.525-.832 2.542-.832a3.58 3.58 0 0 1 .642.054 5.53 5.53 0 0 1 .696.107zm6.197 13.55c-1.267 0-2.391-.286-3.372-.859a6.23 6.23 0 0 1-2.301-2.415c-.553-1.038-.829-2.236-.829-3.595 0-1.377.267-2.585.802-3.622.553-1.037 1.303-1.851 2.248-2.442.963-.59 2.078-.885 3.345-.885 1.249 0 2.328.268 3.238.805a5.43 5.43 0 0 1 2.14 2.254c.518.966.776 2.102.776 3.408v.939l-11.211.027.053-1.69h8.643c0-1.091-.33-1.968-.99-2.63s-1.543-.993-2.649-.993c-.839 0-1.561.188-2.168.563-.588.358-1.043.894-1.364 1.61-.304.698-.455 1.538-.455 2.522 0 1.574.357 2.79 1.07 3.649.714.841 1.739 1.261 3.077 1.261.982 0 1.784-.197 2.409-.59s1.043-.966 1.257-1.717h2.355c-.321 1.395-1.008 2.477-2.06 3.247s-2.391 1.154-4.014 1.154zM166 6.896v2.308h-1.124c-1.195 0-2.14.349-2.836 1.046-.678.68-1.017 1.655-1.017 2.925v6.949h-2.515V7.03h2.354l.214 2.63h-.24a3.49 3.49 0 0 1 1.284-2.093c.678-.555 1.525-.832 2.542-.832a3.58 3.58 0 0 1 .642.054 5.53 5.53 0 0 1 .696.107z"/>
    </g>
    <path id="B" d="M759.717 114.728c1.341 1.341 1.341 3.515 0 4.856l-39.331 39.331c-1.341 1.341-3.515 1.341-4.856 0s-1.34-3.515 0-4.856l39.332-39.331c1.341-1.341 3.515-1.341 4.855 0z"/>
    <path id="C" d="M785.666 211.57c-.491 1.832-2.373 2.919-4.205 2.428l-53.728-14.396c-1.831-.491-2.918-2.374-2.427-4.205s2.373-2.919 4.205-2.428l53.727 14.396c1.832.491 2.919 2.374 2.428 4.205z"/>
    <path id="EB" d="M135.651 13.451c0 .126-.102.229-.228.229h-3.692c-.126 0-.228-.102-.228-.229s.102-.229.228-.229h3.692c.126 0 .228.102.228.229z"/><path id="EC" d="M135.424 15.178c-.033.122-.158.194-.279.162l-3.566-.958c-.122-.033-.194-.158-.161-.28s.157-.194.279-.162l3.566.958c.121.033.194.158.161.28z"/><path id="ED" d="M135.424 11.724c.033.122-.04.247-.161.28l-3.566.958c-.122.033-.247-.04-.279-.162s.039-.247.161-.28l3.566-.958c.121-.033.246.04.279.162z"/>
  </defs>
</svg>